# This file uses centimeters as units for non-parametric coordinates.

mtllib Branch.mtl
g default
v -3.037855 0.000000 -4.476341
v -4.476341 0.000000 -2.261830
v -4.305994 0.000000 -0.160883
v -2.413249 0.000000 1.902208
v -0.615142 0.000000 2.545741
v 1.845426 0.000000 1.126183
v 2.091483 0.000000 -1.107256
v 0.369085 0.000000 -3.075710
v -0.936909 0.000000 -3.870662
v -3.339921 116.794823 -2.152314
v -3.187514 116.794823 -0.108924
v -2.358867 116.794823 1.081553
v -0.776253 116.794823 1.409665
v 0.255583 116.794823 0.923428
v 0.843457 116.794823 -1.136215
v 0.152900 116.794823 -2.609940
v -1.319899 116.794823 -2.963706
v -2.186693 116.794823 -2.809087
vt 0.095327 0.000000
vt 0.464808 0.000000
vt 0.698341 0.180118
vt 0.796154 0.559451
vt 0.734615 0.819483
vt 0.380509 1.000000
vt 0.099692 0.858642
vt 0.000000 0.506511
vt 0.006264 0.292681
vt 0.095327 0.000000
vt 0.464808 0.000000
vt 0.698341 0.180118
vt 0.796154 0.559451
vt 0.734615 0.819483
vt 0.380509 1.000000
vt 0.099692 0.858642
vt 0.000000 0.506511
vt 0.006264 0.292681
vt 0.095327 0.000000
vt 0.464808 0.000000
vt 0.698341 0.180118
vt 0.796154 0.559451
vt 0.734615 0.819483
vt 0.380509 1.000000
vt 0.099692 0.858642
vt 0.000000 0.506511
vt 0.006264 0.292681
vn 0.000000 1.000000 0.000000
vn 0.000000 1.000000 0.000000
vn 0.000000 1.000000 0.000000
vn 0.000000 1.000000 0.000000
vn 0.000000 1.000000 0.000000
vn 0.000000 1.000000 0.000000
vn 0.000000 1.000000 0.000000
vn 0.000000 1.000000 0.000000
vn 0.000000 1.000000 0.000000
vn 0.000000 -1.000000 0.000000
vn 0.000000 -1.000000 0.000000
vn 0.000000 -1.000000 0.000000
vn 0.000000 -1.000000 0.000000
vn 0.000000 -1.000000 0.000000
vn 0.000000 -1.000000 0.000000
vn 0.000000 -1.000000 0.000000
vn 0.000000 -1.000000 0.000000
vn 0.000000 -1.000000 0.000000
vn -0.957242 0.009585 -0.289130
vn -0.957242 0.009585 -0.289131
vn -0.957242 0.009585 -0.289131
vn -0.957242 0.009585 -0.289131
vn -0.956857 0.009034 0.290420
vn -0.956857 0.009034 0.290420
vn -0.956857 0.009034 0.290420
vn -0.956857 0.009034 0.290420
vn -0.566823 0.006052 0.823817
vn -0.376161 0.007759 0.926522
vn -0.372546 0.007786 0.927981
vn -0.566823 0.006052 0.823817
vn -0.055494 0.009635 0.998413
vn -0.055494 0.009635 0.998413
vn 0.752084 0.011382 0.658969
vn 0.752084 0.011382 0.658969
vn 0.752084 0.011382 0.658969
vn 0.752084 0.011382 0.658969
vn 0.992833 0.010580 -0.119044
vn 0.992833 0.010580 -0.119044
vn 0.992833 0.010580 -0.119044
vn 0.992833 0.010580 -0.119044
vn 0.587908 0.004314 -0.808916
vn 0.484100 0.005861 -0.874993
vn 0.481923 0.005891 -0.876194
vn 0.587908 0.004314 -0.808916
vn 0.108502 0.012041 -0.994023
vn 0.106728 0.012076 -0.994215
vn -0.015698 0.014386 -0.999773
vn -0.015698 0.014386 -0.999773
s off
g polySurface1
usemtl initialShadingGroup
f 10/19/1 11/20/2 12/21/3 13/22/4 14/23/5 15/24/6 16/25/7 17/26/8 18/27/9
f 1/10/10 9/18/11 8/17/12 7/16/13 6/15/14 5/14/15 4/13/16 3/12/17 2/11/18
f 1/1/19 2/2/20 11/20/21 10/19/22
f 2/2/23 3/3/24 12/21/25 11/20/26
s 1
f 3/3/27 4/4/28 13/22/29 12/21/30
f 4/4/28 5/5/31 14/23/32 13/22/29
s off
f 5/5/33 6/6/34 15/24/35 14/23/36
f 6/6/37 7/7/38 16/25/39 15/24/40
s 2
f 7/7/41 8/8/42 17/26/43 16/25/44
f 8/8/42 9/9/45 18/27/46 17/26/43
f 9/9/45 1/1/47 10/19/48 18/27/46
